<svg viewBox="0 0 256 256" xmlns="http://www.w3.org/2000/svg">
  <style>
    .icon { fill: #5F7F95; }

    @media (prefers-color-scheme: dark) {
      .icon { fill: #cbd5e1; }
    }
  </style>
  <path class="icon" d="M20.837,110.14c-11.5,-0 -20.837,-9.337 -20.837,-20.837c0,-11.5 9.337,-20.837 20.837,-20.837l116.392,-0l-14.438,-14.438c-8.132,-8.132 -8.132,-21.336 -0,-29.468c8.132,-8.132 21.336,-8.132 29.468,-0l50.009,50.009c5.959,5.959 7.742,14.922 4.517,22.708c-3.225,7.786 -10.823,12.863 -19.251,12.863l-166.698,0Zm214.326,35.721c11.5,-0 20.837,9.337 20.837,20.837c0,11.5 -9.337,20.837 -20.837,20.837l-116.392,0l14.438,14.438c8.132,8.132 8.132,21.336 0,29.468c-8.132,8.132 -21.336,8.132 -29.468,0l-50.009,-50.009c-5.959,-5.959 -7.742,-14.922 -4.517,-22.708c3.225,-7.786 10.823,-12.863 19.251,-12.863l166.698,0Z" />
</svg>