<svg viewBox="0 0 660 390" xmlns="http://www.w3.org/2000/svg" xmlns:serif="http://www.serif.com/" style="fill-rule:evenodd;clip-rule:evenodd;stroke-linecap:round;stroke-linejoin:round;stroke-miterlimit:1.5;"><g id="bg"><path d="M323.14,46.289c67.696,-6.219 160.604,-61.811 229.768,-21.733c32.817,19.016 27.854,46.075 44.865,72.176c23.246,35.669 51.933,65.663 51.933,105.118c0,70.238 -39.564,119.298 -144.124,125.25c-6.734,0.383 -417.875,0.024 -453.066,0.024c-35.925,-28.5 -52.877,-73.397 -52.51,-118.411c0.362,-44.379 35.108,-53.863 51.093,-86.277c19.012,-38.551 10.086,-86.816 64.592,-108.996c102.109,-41.55 120.282,40.855 207.449,32.848Z" style="fill:#ecf2f6;"/><path d="M0.006,327.101c108.191,2.94 182.809,59.101 323.134,61.179c140.66,2.083 245.235,-58.021 336.86,-61.179l-659.994,0Z" style="fill:#ecf2f6;"/><path d="M0.006,327.101c71.476,-76.372 311.391,11.957 412.925,-17.738c174.61,-50.675 210.011,-32.047 247.069,17.738l-659.994,0Z" style="fill:#eff4f7;"/><circle cx="532.837" cy="241.115" r="86.162" style="fill:#e3edf4;"/><circle cx="103.897" cy="241.115" r="86.162" style="fill:#e3edf4;"/><path d="M0.006,327.101l659.994,0" style="fill:none;stroke:#adc3d1;stroke-width:2px;"/></g><g id="dots"><path id="lg-dots" serif:id="lg dots" d="M82.076,17.693c1.736,0 3.146,1.409 3.146,3.146c0,1.736 -1.409,3.146 -3.146,3.146c-1.736,0 -3.146,-1.409 -3.146,-3.146c0,-1.736 1.409,-3.146 3.146,-3.146Zm12.01,26.308c1.736,0 3.146,1.409 3.146,3.146c0,1.736 -1.409,3.146 -3.146,3.146c-1.736,0 -3.146,-1.409 -3.146,-3.146c0,-1.736 1.409,-3.146 3.146,-3.146Zm25.736,-12.01c1.736,0 3.146,1.409 3.146,3.146c0,1.736 -1.409,3.146 -3.146,3.146c-1.736,0 -3.146,-1.409 -3.146,-3.146c0,-1.736 1.409,-3.146 3.146,-3.146Zm-22.305,28.596c1.736,0 3.146,1.409 3.146,3.146c0,1.736 -1.409,3.146 -3.146,3.146c-1.736,0 -3.146,-1.409 -3.146,-3.146c0,-1.736 1.409,-3.146 3.146,-3.146Z" style="fill:#d0e1ef;"/><path id="dots1" serif:id="dots" d="M26.314,333.964c0.947,0 1.716,0.769 1.716,1.716c0,0.947 -0.769,1.716 -1.716,1.716c-0.947,0 -1.716,-0.769 -1.716,-1.716c0,-0.947 0.769,-1.716 1.716,-1.716Zm10.295,0c0.947,0 1.716,0.769 1.716,1.716c0,0.947 -0.769,1.716 -1.716,1.716c-0.947,0 -1.716,-0.769 -1.716,-1.716c0,-0.947 0.769,-1.716 1.716,-1.716Zm9.723,0c0.947,0 1.716,0.769 1.716,1.716c0,0.947 -0.769,1.716 -1.716,1.716c-0.947,0 -1.716,-0.769 -1.716,-1.716c0,-0.947 0.769,-1.716 1.716,-1.716Zm10.866,0c0.947,0 1.716,0.769 1.716,1.716c0,0.947 -0.769,1.716 -1.716,1.716c-0.947,0 -1.716,-0.769 -1.716,-1.716c0,-0.947 0.769,-1.716 1.716,-1.716Zm10.295,0c0.947,0 1.716,0.769 1.716,1.716c0,0.947 -0.769,1.716 -1.716,1.716c-0.947,0 -1.716,-0.769 -1.716,-1.716c0,-0.947 0.769,-1.716 1.716,-1.716Zm9.723,0c0.947,0 1.716,0.769 1.716,1.716c0,0.947 -0.769,1.716 -1.716,1.716c-0.947,0 -1.716,-0.769 -1.716,-1.716c0,-0.947 0.769,-1.716 1.716,-1.716Zm10.295,0c0.947,0 1.716,0.769 1.716,1.716c0,0.947 -0.769,1.716 -1.716,1.716c-0.947,0 -1.716,-0.769 -1.716,-1.716c0,-0.947 0.769,-1.716 1.716,-1.716Zm10.866,0c0.947,0 1.716,0.769 1.716,1.716c0,0.947 -0.769,1.716 -1.716,1.716c-0.947,0 -1.716,-0.769 -1.716,-1.716c0,-0.947 0.769,-1.716 1.716,-1.716Zm11.438,0c0.947,0 1.716,0.769 1.716,1.716c0,0.947 -0.769,1.716 -1.716,1.716c-0.947,0 -1.716,-0.769 -1.716,-1.716c0,-0.947 0.769,-1.716 1.716,-1.716Zm10.866,0c0.947,0 1.716,0.769 1.716,1.716c0,0.947 -0.769,1.716 -1.716,1.716c-0.947,0 -1.716,-0.769 -1.716,-1.716c0,-0.947 0.769,-1.716 1.716,-1.716Zm-24.021,9.151c0.947,0 1.716,0.769 1.716,1.716c0,0.947 -0.769,1.716 -1.716,1.716c-0.947,0 -1.716,-0.769 -1.716,-1.716c0,-0.947 0.769,-1.716 1.716,-1.716Zm18.873,0.572c0.947,0 1.716,0.769 1.716,1.716c0,0.947 -0.769,1.716 -1.716,1.716c-0.947,0 -1.716,-0.769 -1.716,-1.716c0,-0.947 0.769,-1.716 1.716,-1.716Zm4.003,9.151c0.947,0 1.716,0.769 1.716,1.716c0,0.947 -0.769,1.716 -1.716,1.716c-0.947,0 -1.716,-0.769 -1.716,-1.716c0,-0.947 0.769,-1.716 1.716,-1.716Zm9.723,-0.572c0.947,0 1.716,0.769 1.716,1.716c0,0.947 -0.769,1.716 -1.716,1.716c-0.947,0 -1.716,-0.769 -1.716,-1.716c0,-0.947 0.769,-1.716 1.716,-1.716Zm-44.038,-160.137c0.947,0 1.716,0.769 1.716,1.716c0,0.947 -0.769,1.716 -1.716,1.716c-0.947,0 -1.716,-0.769 -1.716,-1.716c0,-0.947 0.769,-1.716 1.716,-1.716Zm-11.438,0c0.947,0 1.716,0.769 1.716,1.716c0,0.947 -0.769,1.716 -1.716,1.716c-0.947,0 -1.716,-0.769 -1.716,-1.716c0,-0.947 0.769,-1.716 1.716,-1.716Zm-11.438,0c0.947,0 1.716,0.769 1.716,1.716c0,0.947 -0.769,1.716 -1.716,1.716c-0.947,0 -1.716,-0.769 -1.716,-1.716c0,-0.947 0.769,-1.716 1.716,-1.716Zm-11.438,0c0.947,0 1.716,0.769 1.716,1.716c0,0.947 -0.769,1.716 -1.716,1.716c-0.947,0 -1.716,-0.769 -1.716,-1.716c0,-0.947 0.769,-1.716 1.716,-1.716Zm-11.438,0c0.947,0 1.716,0.769 1.716,1.716c0,0.947 -0.769,1.716 -1.716,1.716c-0.947,0 -1.716,-0.769 -1.716,-1.716c0,-0.947 0.769,-1.716 1.716,-1.716Zm-11.438,0c0.947,0 1.716,0.769 1.716,1.716c0,0.947 -0.769,1.716 -1.716,1.716c-0.947,0 -1.716,-0.769 -1.716,-1.716c0,-0.947 0.769,-1.716 1.716,-1.716Zm57.192,-11.438c0.947,0 1.716,0.769 1.716,1.716c0,0.947 -0.769,1.716 -1.716,1.716c-0.947,0 -1.716,-0.769 -1.716,-1.716c0,-0.947 0.769,-1.716 1.716,-1.716Zm-11.438,0c0.947,0 1.716,0.769 1.716,1.716c0,0.947 -0.769,1.716 -1.716,1.716c-0.947,0 -1.716,-0.769 -1.716,-1.716c0,-0.947 0.769,-1.716 1.716,-1.716Zm-11.438,0c0.947,0 1.716,0.769 1.716,1.716c0,0.947 -0.769,1.716 -1.716,1.716c-0.947,0 -1.716,-0.769 -1.716,-1.716c0,-0.947 0.769,-1.716 1.716,-1.716Zm-11.438,0c0.947,0 1.716,0.769 1.716,1.716c0,0.947 -0.769,1.716 -1.716,1.716c-0.947,0 -1.716,-0.769 -1.716,-1.716c0,-0.947 0.769,-1.716 1.716,-1.716Zm-11.438,0c0.947,0 1.716,0.769 1.716,1.716c0,0.947 -0.769,1.716 -1.716,1.716c-0.947,0 -1.716,-0.769 -1.716,-1.716c0,-0.947 0.769,-1.716 1.716,-1.716Zm-11.438,0c0.947,0 1.716,0.769 1.716,1.716c0,0.947 -0.769,1.716 -1.716,1.716c-0.947,0 -1.716,-0.769 -1.716,-1.716c0,-0.947 0.769,-1.716 1.716,-1.716Zm45.753,-11.438c0.947,0 1.716,0.769 1.716,1.716c0,0.947 -0.769,1.716 -1.716,1.716c-0.947,0 -1.716,-0.769 -1.716,-1.716c0,-0.947 0.769,-1.716 1.716,-1.716Zm-11.438,0c0.947,0 1.716,0.769 1.716,1.716c0,0.947 -0.769,1.716 -1.716,1.716c-0.947,0 -1.716,-0.769 -1.716,-1.716c0,-0.947 0.769,-1.716 1.716,-1.716Zm-11.438,0c0.947,0 1.716,0.769 1.716,1.716c0,0.947 -0.769,1.716 -1.716,1.716c-0.947,0 -1.716,-0.769 -1.716,-1.716c0,-0.947 0.769,-1.716 1.716,-1.716Zm-11.438,0c0.947,0 1.716,0.769 1.716,1.716c0,0.947 -0.769,1.716 -1.716,1.716c-0.947,0 -1.716,-0.769 -1.716,-1.716c0,-0.947 0.769,-1.716 1.716,-1.716Zm-11.438,0c0.947,0 1.716,0.769 1.716,1.716c0,0.947 -0.769,1.716 -1.716,1.716c-0.947,0 -1.716,-0.769 -1.716,-1.716c0,-0.947 0.769,-1.716 1.716,-1.716Zm80.069,-11.438c0.947,0 1.716,0.769 1.716,1.716c0,0.947 -0.769,1.716 -1.716,1.716c-0.947,0 -1.716,-0.769 -1.716,-1.716c0,-0.947 0.769,-1.716 1.716,-1.716Zm-11.438,0c0.947,0 1.716,0.769 1.716,1.716c0,0.947 -0.769,1.716 -1.716,1.716c-0.947,0 -1.716,-0.769 -1.716,-1.716c0,-0.947 0.769,-1.716 1.716,-1.716Zm-11.438,0c0.947,0 1.716,0.769 1.716,1.716c0,0.947 -0.769,1.716 -1.716,1.716c-0.947,0 -1.716,-0.769 -1.716,-1.716c0,-0.947 0.769,-1.716 1.716,-1.716Zm-11.438,0c0.947,0 1.716,0.769 1.716,1.716c0,0.947 -0.769,1.716 -1.716,1.716c-0.947,0 -1.716,-0.769 -1.716,-1.716c0,-0.947 0.769,-1.716 1.716,-1.716Zm-11.438,0c0.947,0 1.716,0.769 1.716,1.716c0,0.947 -0.769,1.716 -1.716,1.716c-0.947,0 -1.716,-0.769 -1.716,-1.716c0,-0.947 0.769,-1.716 1.716,-1.716Zm-11.438,0c0.947,0 1.716,0.769 1.716,1.716c0,0.947 -0.769,1.716 -1.716,1.716c-0.947,0 -1.716,-0.769 -1.716,-1.716c0,-0.947 0.769,-1.716 1.716,-1.716Zm-11.438,0c0.947,0 1.716,0.769 1.716,1.716c0,0.947 -0.769,1.716 -1.716,1.716c-0.947,0 -1.716,-0.769 -1.716,-1.716c0,-0.947 0.769,-1.716 1.716,-1.716Zm-11.438,0c0.947,0 1.716,0.769 1.716,1.716c0,0.947 -0.769,1.716 -1.716,1.716c-0.947,0 -1.716,-0.769 -1.716,-1.716c0,-0.947 0.769,-1.716 1.716,-1.716Zm80.069,-11.438c0.947,0 1.716,0.769 1.716,1.716c0,0.947 -0.769,1.716 -1.716,1.716c-0.947,0 -1.716,-0.769 -1.716,-1.716c0,-0.947 0.769,-1.716 1.716,-1.716Zm-11.438,0c0.947,0 1.716,0.769 1.716,1.716c0,0.947 -0.769,1.716 -1.716,1.716c-0.947,0 -1.716,-0.769 -1.716,-1.716c0,-0.947 0.769,-1.716 1.716,-1.716Zm-11.438,0c0.947,0 1.716,0.769 1.716,1.716c0,0.947 -0.769,1.716 -1.716,1.716c-0.947,0 -1.716,-0.769 -1.716,-1.716c0,-0.947 0.769,-1.716 1.716,-1.716Zm-11.438,0c0.947,0 1.716,0.769 1.716,1.716c0,0.947 -0.769,1.716 -1.716,1.716c-0.947,0 -1.716,-0.769 -1.716,-1.716c0,-0.947 0.769,-1.716 1.716,-1.716Zm-11.438,0c0.947,0 1.716,0.769 1.716,1.716c0,0.947 -0.769,1.716 -1.716,1.716c-0.947,0 -1.716,-0.769 -1.716,-1.716c0,-0.947 0.769,-1.716 1.716,-1.716Zm-11.438,0c0.947,0 1.716,0.769 1.716,1.716c0,0.947 -0.769,1.716 -1.716,1.716c-0.947,0 -1.716,-0.769 -1.716,-1.716c0,-0.947 0.769,-1.716 1.716,-1.716Zm-11.438,0c0.947,0 1.716,0.769 1.716,1.716c0,0.947 -0.769,1.716 -1.716,1.716c-0.947,0 -1.716,-0.769 -1.716,-1.716c0,-0.947 0.769,-1.716 1.716,-1.716Zm68.63,-11.438c0.947,0 1.716,0.769 1.716,1.716c0,0.947 -0.769,1.716 -1.716,1.716c-0.947,0 -1.716,-0.769 -1.716,-1.716c0,-0.947 0.769,-1.716 1.716,-1.716Zm-11.438,0c0.947,0 1.716,0.769 1.716,1.716c0,0.947 -0.769,1.716 -1.716,1.716c-0.947,0 -1.716,-0.769 -1.716,-1.716c0,-0.947 0.769,-1.716 1.716,-1.716Zm-11.438,0c0.947,0 1.716,0.769 1.716,1.716c0,0.947 -0.769,1.716 -1.716,1.716c-0.947,0 -1.716,-0.769 -1.716,-1.716c0,-0.947 0.769,-1.716 1.716,-1.716Zm-11.438,0c0.947,0 1.716,0.769 1.716,1.716c0,0.947 -0.769,1.716 -1.716,1.716c-0.947,0 -1.716,-0.769 -1.716,-1.716c0,-0.947 0.769,-1.716 1.716,-1.716Zm-11.438,0c0.947,0 1.716,0.769 1.716,1.716c0,0.947 -0.769,1.716 -1.716,1.716c-0.947,0 -1.716,-0.769 -1.716,-1.716c0,-0.947 0.769,-1.716 1.716,-1.716Zm-11.438,0c0.947,0 1.716,0.769 1.716,1.716c0,0.947 -0.769,1.716 -1.716,1.716c-0.947,0 -1.716,-0.769 -1.716,-1.716c0,-0.947 0.769,-1.716 1.716,-1.716Zm57.192,-11.438c0.947,0 1.716,0.769 1.716,1.716c0,0.947 -0.769,1.716 -1.716,1.716c-0.947,0 -1.716,-0.769 -1.716,-1.716c0,-0.947 0.769,-1.716 1.716,-1.716Zm-11.438,0c0.947,0 1.716,0.769 1.716,1.716c0,0.947 -0.769,1.716 -1.716,1.716c-0.947,0 -1.716,-0.769 -1.716,-1.716c0,-0.947 0.769,-1.716 1.716,-1.716Zm-11.438,0c0.947,0 1.716,0.769 1.716,1.716c0,0.947 -0.769,1.716 -1.716,1.716c-0.947,0 -1.716,-0.769 -1.716,-1.716c0,-0.947 0.769,-1.716 1.716,-1.716Zm-11.438,0c0.947,0 1.716,0.769 1.716,1.716c0,0.947 -0.769,1.716 -1.716,1.716c-0.947,0 -1.716,-0.769 -1.716,-1.716c0,-0.947 0.769,-1.716 1.716,-1.716Zm11.438,-11.438c0.947,0 1.716,0.769 1.716,1.716c0,0.947 -0.769,1.716 -1.716,1.716c-0.947,0 -1.716,-0.769 -1.716,-1.716c0,-0.947 0.769,-1.716 1.716,-1.716Zm490.134,225.908c-0.947,0 -1.716,-0.769 -1.716,-1.716c0,-0.947 0.769,-1.716 1.716,-1.716c0.947,0 1.716,0.769 1.716,1.716c0,0.947 -0.769,1.716 -1.716,1.716Zm11.438,0c-0.947,0 -1.716,-0.769 -1.716,-1.716c0,-0.947 0.769,-1.716 1.716,-1.716c0.947,0 1.716,0.769 1.716,1.716c0,0.947 -0.769,1.716 -1.716,1.716Zm11.438,0c-0.947,0 -1.716,-0.769 -1.716,-1.716c0,-0.947 0.769,-1.716 1.716,-1.716c0.947,0 1.716,0.769 1.716,1.716c0,0.947 -0.769,1.716 -1.716,1.716Zm11.438,0c-0.947,0 -1.716,-0.769 -1.716,-1.716c0,-0.947 0.769,-1.716 1.716,-1.716c0.947,0 1.716,0.769 1.716,1.716c0,0.947 -0.769,1.716 -1.716,1.716Zm11.438,0c-0.947,0 -1.716,-0.769 -1.716,-1.716c0,-0.947 0.769,-1.716 1.716,-1.716c0.947,0 1.716,0.769 1.716,1.716c0,0.947 -0.769,1.716 -1.716,1.716Zm11.438,0c-0.947,0 -1.716,-0.769 -1.716,-1.716c0,-0.947 0.769,-1.716 1.716,-1.716c0.947,0 1.716,0.769 1.716,1.716c0,0.947 -0.769,1.716 -1.716,1.716Zm-57.192,11.438c-0.947,0 -1.716,-0.769 -1.716,-1.716c0,-0.947 0.769,-1.716 1.716,-1.716c0.947,0 1.716,0.769 1.716,1.716c0,0.947 -0.769,1.716 -1.716,1.716Zm11.438,0c-0.947,0 -1.716,-0.769 -1.716,-1.716c0,-0.947 0.769,-1.716 1.716,-1.716c0.947,0 1.716,0.769 1.716,1.716c0,0.947 -0.769,1.716 -1.716,1.716Zm11.438,0c-0.947,0 -1.716,-0.769 -1.716,-1.716c0,-0.947 0.769,-1.716 1.716,-1.716c0.947,0 1.716,0.769 1.716,1.716c0,0.947 -0.769,1.716 -1.716,1.716Zm11.438,0c-0.947,0 -1.716,-0.769 -1.716,-1.716c0,-0.947 0.769,-1.716 1.716,-1.716c0.947,0 1.716,0.769 1.716,1.716c0,0.947 -0.769,1.716 -1.716,1.716Zm11.438,0c-0.947,0 -1.716,-0.769 -1.716,-1.716c0,-0.947 0.769,-1.716 1.716,-1.716c0.947,0 1.716,0.769 1.716,1.716c0,0.947 -0.769,1.716 -1.716,1.716Zm-34.315,11.438c-0.947,0 -1.716,-0.769 -1.716,-1.716c0,-0.947 0.769,-1.716 1.716,-1.716c0.947,0 1.716,0.769 1.716,1.716c0,0.947 -0.769,1.716 -1.716,1.716Zm11.438,0c-0.947,0 -1.716,-0.769 -1.716,-1.716c0,-0.947 0.769,-1.716 1.716,-1.716c0.947,0 1.716,0.769 1.716,1.716c0,0.947 -0.769,1.716 -1.716,1.716Zm11.438,0c-0.947,0 -1.716,-0.769 -1.716,-1.716c0,-0.947 0.769,-1.716 1.716,-1.716c0.947,0 1.716,0.769 1.716,1.716c0,0.947 -0.769,1.716 -1.716,1.716Zm-45.753,-11.438c-0.947,0 -1.716,-0.769 -1.716,-1.716c0,-0.947 0.769,-1.716 1.716,-1.716c0.947,0 1.716,0.769 1.716,1.716c0,0.947 -0.769,1.716 -1.716,1.716Zm-34.315,-11.438c-0.947,0 -1.716,-0.769 -1.716,-1.716c0,-0.947 0.769,-1.716 1.716,-1.716c0.947,0 1.716,0.769 1.716,1.716c0,0.947 -0.769,1.716 -1.716,1.716Zm11.438,0c-0.947,0 -1.716,-0.769 -1.716,-1.716c0,-0.947 0.769,-1.716 1.716,-1.716c0.947,0 1.716,0.769 1.716,1.716c0,0.947 -0.769,1.716 -1.716,1.716Zm22.877,0c-0.947,0 -1.716,-0.769 -1.716,-1.716c0,-0.947 0.769,-1.716 1.716,-1.716c0.947,0 1.716,0.769 1.716,1.716c0,0.947 -0.769,1.716 -1.716,1.716Zm-11.438,0c-0.947,0 -1.716,-0.769 -1.716,-1.716c0,-0.947 0.769,-1.716 1.716,-1.716c0.947,0 1.716,0.769 1.716,1.716c0,0.947 -0.769,1.716 -1.716,1.716Zm41.75,-147.555c0.947,0 1.716,0.769 1.716,1.716c0,0.947 -0.769,1.716 -1.716,1.716c-0.947,0 -1.716,-0.769 -1.716,-1.716c0,-0.947 0.769,-1.716 1.716,-1.716Zm-11.438,0c0.947,0 1.716,0.769 1.716,1.716c0,0.947 -0.769,1.716 -1.716,1.716c-0.947,0 -1.716,-0.769 -1.716,-1.716c0,-0.947 0.769,-1.716 1.716,-1.716Zm-11.438,0c0.947,0 1.716,0.769 1.716,1.716c0,0.947 -0.769,1.716 -1.716,1.716c-0.947,0 -1.716,-0.769 -1.716,-1.716c0,-0.947 0.769,-1.716 1.716,-1.716Zm22.877,-11.438c0.947,0 1.716,0.769 1.716,1.716c0,0.947 -0.769,1.716 -1.716,1.716c-0.947,0 -1.716,-0.769 -1.716,-1.716c0,-0.947 0.769,-1.716 1.716,-1.716Zm-11.438,0c0.947,0 1.716,0.769 1.716,1.716c0,0.947 -0.769,1.716 -1.716,1.716c-0.947,0 -1.716,-0.769 -1.716,-1.716c0,-0.947 0.769,-1.716 1.716,-1.716Zm-11.438,0c0.947,0 1.716,0.769 1.716,1.716c0,0.947 -0.769,1.716 -1.716,1.716c-0.947,0 -1.716,-0.769 -1.716,-1.716c0,-0.947 0.769,-1.716 1.716,-1.716Zm-11.438,0c0.947,0 1.716,0.769 1.716,1.716c0,0.947 -0.769,1.716 -1.716,1.716c-0.947,0 -1.716,-0.769 -1.716,-1.716c0,-0.947 0.769,-1.716 1.716,-1.716Zm22.877,-11.438c0.947,0 1.716,0.769 1.716,1.716c0,0.947 -0.769,1.716 -1.716,1.716c-0.947,0 -1.716,-0.769 -1.716,-1.716c0,-0.947 0.769,-1.716 1.716,-1.716Zm-11.438,0c0.947,0 1.716,0.769 1.716,1.716c0,0.947 -0.769,1.716 -1.716,1.716c-0.947,0 -1.716,-0.769 -1.716,-1.716c0,-0.947 0.769,-1.716 1.716,-1.716Zm-11.438,0c0.947,0 1.716,0.769 1.716,1.716c0,0.947 -0.769,1.716 -1.716,1.716c-0.947,0 -1.716,-0.769 -1.716,-1.716c0,-0.947 0.769,-1.716 1.716,-1.716Zm45.753,-11.438c0.947,0 1.716,0.769 1.716,1.716c0,0.947 -0.769,1.716 -1.716,1.716c-0.947,0 -1.716,-0.769 -1.716,-1.716c0,-0.947 0.769,-1.716 1.716,-1.716Zm-11.438,0c0.947,0 1.716,0.769 1.716,1.716c0,0.947 -0.769,1.716 -1.716,1.716c-0.947,0 -1.716,-0.769 -1.716,-1.716c0,-0.947 0.769,-1.716 1.716,-1.716Zm-11.438,0c0.947,0 1.716,0.769 1.716,1.716c0,0.947 -0.769,1.716 -1.716,1.716c-0.947,0 -1.716,-0.769 -1.716,-1.716c0,-0.947 0.769,-1.716 1.716,-1.716Zm-11.438,0c0.947,0 1.716,0.769 1.716,1.716c0,0.947 -0.769,1.716 -1.716,1.716c-0.947,0 -1.716,-0.769 -1.716,-1.716c0,-0.947 0.769,-1.716 1.716,-1.716Zm-11.438,0c0.947,0 1.716,0.769 1.716,1.716c0,0.947 -0.769,1.716 -1.716,1.716c-0.947,0 -1.716,-0.769 -1.716,-1.716c0,-0.947 0.769,-1.716 1.716,-1.716Zm57.192,-11.438c0.947,0 1.716,0.769 1.716,1.716c0,0.947 -0.769,1.716 -1.716,1.716c-0.947,0 -1.716,-0.769 -1.716,-1.716c0,-0.947 0.769,-1.716 1.716,-1.716Zm-11.438,0c0.947,0 1.716,0.769 1.716,1.716c0,0.947 -0.769,1.716 -1.716,1.716c-0.947,0 -1.716,-0.769 -1.716,-1.716c0,-0.947 0.769,-1.716 1.716,-1.716Zm-11.438,0c0.947,0 1.716,0.769 1.716,1.716c0,0.947 -0.769,1.716 -1.716,1.716c-0.947,0 -1.716,-0.769 -1.716,-1.716c0,-0.947 0.769,-1.716 1.716,-1.716Zm-11.438,0c0.947,0 1.716,0.769 1.716,1.716c0,0.947 -0.769,1.716 -1.716,1.716c-0.947,0 -1.716,-0.769 -1.716,-1.716c0,-0.947 0.769,-1.716 1.716,-1.716Zm-11.438,0c0.947,0 1.716,0.769 1.716,1.716c0,0.947 -0.769,1.716 -1.716,1.716c-0.947,0 -1.716,-0.769 -1.716,-1.716c0,-0.947 0.769,-1.716 1.716,-1.716Zm-11.438,0c0.947,0 1.716,0.769 1.716,1.716c0,0.947 -0.769,1.716 -1.716,1.716c-0.947,0 -1.716,-0.769 -1.716,-1.716c0,-0.947 0.769,-1.716 1.716,-1.716Zm57.192,-11.438c0.947,0 1.716,0.769 1.716,1.716c0,0.947 -0.769,1.716 -1.716,1.716c-0.947,0 -1.716,-0.769 -1.716,-1.716c0,-0.947 0.769,-1.716 1.716,-1.716Zm-11.438,0c0.947,0 1.716,0.769 1.716,1.716c0,0.947 -0.769,1.716 -1.716,1.716c-0.947,0 -1.716,-0.769 -1.716,-1.716c0,-0.947 0.769,-1.716 1.716,-1.716Zm-11.438,0c0.947,0 1.716,0.769 1.716,1.716c0,0.947 -0.769,1.716 -1.716,1.716c-0.947,0 -1.716,-0.769 -1.716,-1.716c0,-0.947 0.769,-1.716 1.716,-1.716Zm-11.438,0c0.947,0 1.716,0.769 1.716,1.716c0,0.947 -0.769,1.716 -1.716,1.716c-0.947,0 -1.716,-0.769 -1.716,-1.716c0,-0.947 0.769,-1.716 1.716,-1.716Zm-11.438,0c0.947,0 1.716,0.769 1.716,1.716c0,0.947 -0.769,1.716 -1.716,1.716c-0.947,0 -1.716,-0.769 -1.716,-1.716c0,-0.947 0.769,-1.716 1.716,-1.716Zm-11.438,0c0.947,0 1.716,0.769 1.716,1.716c0,0.947 -0.769,1.716 -1.716,1.716c-0.947,0 -1.716,-0.769 -1.716,-1.716c0,-0.947 0.769,-1.716 1.716,-1.716Zm45.753,-11.438c0.947,0 1.716,0.769 1.716,1.716c0,0.947 -0.769,1.716 -1.716,1.716c-0.947,0 -1.716,-0.769 -1.716,-1.716c0,-0.947 0.769,-1.716 1.716,-1.716Zm-11.438,0c0.947,0 1.716,0.769 1.716,1.716c0,0.947 -0.769,1.716 -1.716,1.716c-0.947,0 -1.716,-0.769 -1.716,-1.716c0,-0.947 0.769,-1.716 1.716,-1.716Zm-11.438,0c0.947,0 1.716,0.769 1.716,1.716c0,0.947 -0.769,1.716 -1.716,1.716c-0.947,0 -1.716,-0.769 -1.716,-1.716c0,-0.947 0.769,-1.716 1.716,-1.716Zm11.438,-11.438c0.947,0 1.716,0.769 1.716,1.716c0,0.947 -0.769,1.716 -1.716,1.716c-0.947,0 -1.716,-0.769 -1.716,-1.716c0,-0.947 0.769,-1.716 1.716,-1.716Zm-149.843,-84.072c-0.947,0 -1.716,-0.769 -1.716,-1.716c0,-0.947 0.769,-1.716 1.716,-1.716c0.947,0 1.716,0.769 1.716,1.716c0,0.947 -0.769,1.716 -1.716,1.716Zm11.438,0c-0.947,0 -1.716,-0.769 -1.716,-1.716c0,-0.947 0.769,-1.716 1.716,-1.716c0.947,0 1.716,0.769 1.716,1.716c0,0.947 -0.769,1.716 -1.716,1.716Zm11.438,0c-0.947,0 -1.716,-0.769 -1.716,-1.716c0,-0.947 0.769,-1.716 1.716,-1.716c0.947,0 1.716,0.769 1.716,1.716c0,0.947 -0.769,1.716 -1.716,1.716Zm11.438,0c-0.947,0 -1.716,-0.769 -1.716,-1.716c0,-0.947 0.769,-1.716 1.716,-1.716c0.947,0 1.716,0.769 1.716,1.716c0,0.947 -0.769,1.716 -1.716,1.716Zm11.438,0c-0.947,0 -1.716,-0.769 -1.716,-1.716c0,-0.947 0.769,-1.716 1.716,-1.716c0.947,0 1.716,0.769 1.716,1.716c0,0.947 -0.769,1.716 -1.716,1.716Zm-57.192,11.438c-0.947,0 -1.716,-0.769 -1.716,-1.716c0,-0.947 0.769,-1.716 1.716,-1.716c0.947,0 1.716,0.769 1.716,1.716c0,0.947 -0.769,1.716 -1.716,1.716Zm11.438,0c-0.947,0 -1.716,-0.769 -1.716,-1.716c0,-0.947 0.769,-1.716 1.716,-1.716c0.947,0 1.716,0.769 1.716,1.716c0,0.947 -0.769,1.716 -1.716,1.716Zm11.438,0c-0.947,0 -1.716,-0.769 -1.716,-1.716c0,-0.947 0.769,-1.716 1.716,-1.716c0.947,0 1.716,0.769 1.716,1.716c0,0.947 -0.769,1.716 -1.716,1.716Zm11.438,0c-0.947,0 -1.716,-0.769 -1.716,-1.716c0,-0.947 0.769,-1.716 1.716,-1.716c0.947,0 1.716,0.769 1.716,1.716c0,0.947 -0.769,1.716 -1.716,1.716Zm11.438,0c-0.947,0 -1.716,-0.769 -1.716,-1.716c0,-0.947 0.769,-1.716 1.716,-1.716c0.947,0 1.716,0.769 1.716,1.716c0,0.947 -0.769,1.716 -1.716,1.716Zm11.438,0c-0.947,0 -1.716,-0.769 -1.716,-1.716c0,-0.947 0.769,-1.716 1.716,-1.716c0.947,0 1.716,0.769 1.716,1.716c0,0.947 -0.769,1.716 -1.716,1.716Zm-45.753,11.438c-0.947,0 -1.716,-0.769 -1.716,-1.716c0,-0.947 0.769,-1.716 1.716,-1.716c0.947,0 1.716,0.769 1.716,1.716c0,0.947 -0.769,1.716 -1.716,1.716Zm11.438,0c-0.947,0 -1.716,-0.769 -1.716,-1.716c0,-0.947 0.769,-1.716 1.716,-1.716c0.947,0 1.716,0.769 1.716,1.716c0,0.947 -0.769,1.716 -1.716,1.716Zm11.438,0c-0.947,0 -1.716,-0.769 -1.716,-1.716c0,-0.947 0.769,-1.716 1.716,-1.716c0.947,0 1.716,0.769 1.716,1.716c0,0.947 -0.769,1.716 -1.716,1.716Zm11.438,0c-0.947,0 -1.716,-0.769 -1.716,-1.716c0,-0.947 0.769,-1.716 1.716,-1.716c0.947,0 1.716,0.769 1.716,1.716c0,0.947 -0.769,1.716 -1.716,1.716Zm11.438,0c-0.947,0 -1.716,-0.769 -1.716,-1.716c0,-0.947 0.769,-1.716 1.716,-1.716c0.947,0 1.716,0.769 1.716,1.716c0,0.947 -0.769,1.716 -1.716,1.716Zm-80.069,11.438c-0.947,0 -1.716,-0.769 -1.716,-1.716c0,-0.947 0.769,-1.716 1.716,-1.716c0.947,0 1.716,0.769 1.716,1.716c0,0.947 -0.769,1.716 -1.716,1.716Zm11.438,0c-0.947,0 -1.716,-0.769 -1.716,-1.716c0,-0.947 0.769,-1.716 1.716,-1.716c0.947,0 1.716,0.769 1.716,1.716c0,0.947 -0.769,1.716 -1.716,1.716Zm11.438,0c-0.947,0 -1.716,-0.769 -1.716,-1.716c0,-0.947 0.769,-1.716 1.716,-1.716c0.947,0 1.716,0.769 1.716,1.716c0,0.947 -0.769,1.716 -1.716,1.716Zm11.438,0c-0.947,0 -1.716,-0.769 -1.716,-1.716c0,-0.947 0.769,-1.716 1.716,-1.716c0.947,0 1.716,0.769 1.716,1.716c0,0.947 -0.769,1.716 -1.716,1.716Zm11.438,0c-0.947,0 -1.716,-0.769 -1.716,-1.716c0,-0.947 0.769,-1.716 1.716,-1.716c0.947,0 1.716,0.769 1.716,1.716c0,0.947 -0.769,1.716 -1.716,1.716Zm11.438,0c-0.947,0 -1.716,-0.769 -1.716,-1.716c0,-0.947 0.769,-1.716 1.716,-1.716c0.947,0 1.716,0.769 1.716,1.716c0,0.947 -0.769,1.716 -1.716,1.716Zm-57.192,11.438c-0.947,0 -1.716,-0.769 -1.716,-1.716c0,-0.947 0.769,-1.716 1.716,-1.716c0.947,0 1.716,0.769 1.716,1.716c0,0.947 -0.769,1.716 -1.716,1.716Zm11.438,0c-0.947,0 -1.716,-0.769 -1.716,-1.716c0,-0.947 0.769,-1.716 1.716,-1.716c0.947,0 1.716,0.769 1.716,1.716c0,0.947 -0.769,1.716 -1.716,1.716Zm11.438,0c-0.947,0 -1.716,-0.769 -1.716,-1.716c0,-0.947 0.769,-1.716 1.716,-1.716c0.947,0 1.716,0.769 1.716,1.716c0,0.947 -0.769,1.716 -1.716,1.716Zm11.438,0c-0.947,0 -1.716,-0.769 -1.716,-1.716c0,-0.947 0.769,-1.716 1.716,-1.716c0.947,0 1.716,0.769 1.716,1.716c0,0.947 -0.769,1.716 -1.716,1.716Zm11.438,0c-0.947,0 -1.716,-0.769 -1.716,-1.716c0,-0.947 0.769,-1.716 1.716,-1.716c0.947,0 1.716,0.769 1.716,1.716c0,0.947 -0.769,1.716 -1.716,1.716Zm11.438,0c-0.947,0 -1.716,-0.769 -1.716,-1.716c0,-0.947 0.769,-1.716 1.716,-1.716c0.947,0 1.716,0.769 1.716,1.716c0,0.947 -0.769,1.716 -1.716,1.716Zm11.438,0c-0.947,0 -1.716,-0.769 -1.716,-1.716c0,-0.947 0.769,-1.716 1.716,-1.716c0.947,0 1.716,0.769 1.716,1.716c0,0.947 -0.769,1.716 -1.716,1.716Zm-68.63,11.438c-0.947,0 -1.716,-0.769 -1.716,-1.716c0,-0.947 0.769,-1.716 1.716,-1.716c0.947,0 1.716,0.769 1.716,1.716c0,0.947 -0.769,1.716 -1.716,1.716Zm11.438,0c-0.947,0 -1.716,-0.769 -1.716,-1.716c0,-0.947 0.769,-1.716 1.716,-1.716c0.947,0 1.716,0.769 1.716,1.716c0,0.947 -0.769,1.716 -1.716,1.716Zm11.438,0c-0.947,0 -1.716,-0.769 -1.716,-1.716c0,-0.947 0.769,-1.716 1.716,-1.716c0.947,0 1.716,0.769 1.716,1.716c0,0.947 -0.769,1.716 -1.716,1.716Zm11.438,0c-0.947,0 -1.716,-0.769 -1.716,-1.716c0,-0.947 0.769,-1.716 1.716,-1.716c0.947,0 1.716,0.769 1.716,1.716c0,0.947 -0.769,1.716 -1.716,1.716Zm11.438,0c-0.947,0 -1.716,-0.769 -1.716,-1.716c0,-0.947 0.769,-1.716 1.716,-1.716c0.947,0 1.716,0.769 1.716,1.716c0,0.947 -0.769,1.716 -1.716,1.716Zm11.438,0c-0.947,0 -1.716,-0.769 -1.716,-1.716c0,-0.947 0.769,-1.716 1.716,-1.716c0.947,0 1.716,0.769 1.716,1.716c0,0.947 -0.769,1.716 -1.716,1.716Zm-45.753,11.438c-0.947,0 -1.716,-0.769 -1.716,-1.716c0,-0.947 0.769,-1.716 1.716,-1.716c0.947,0 1.716,0.769 1.716,1.716c0,0.947 -0.769,1.716 -1.716,1.716Zm11.438,0c-0.947,0 -1.716,-0.769 -1.716,-1.716c0,-0.947 0.769,-1.716 1.716,-1.716c0.947,0 1.716,0.769 1.716,1.716c0,0.947 -0.769,1.716 -1.716,1.716Zm11.438,0c-0.947,0 -1.716,-0.769 -1.716,-1.716c0,-0.947 0.769,-1.716 1.716,-1.716c0.947,0 1.716,0.769 1.716,1.716c0,0.947 -0.769,1.716 -1.716,1.716Zm-251.072,-10.866c0.947,0 1.716,0.769 1.716,1.716c0,0.947 -0.769,1.716 -1.716,1.716c-0.947,0 -1.716,-0.769 -1.716,-1.716c0,-0.947 0.769,-1.716 1.716,-1.716Zm-11.438,0c0.947,0 1.716,0.769 1.716,1.716c0,0.947 -0.769,1.716 -1.716,1.716c-0.947,0 -1.716,-0.769 -1.716,-1.716c0,-0.947 0.769,-1.716 1.716,-1.716Zm-11.438,0c0.947,0 1.716,0.769 1.716,1.716c0,0.947 -0.769,1.716 -1.716,1.716c-0.947,0 -1.716,-0.769 -1.716,-1.716c0,-0.947 0.769,-1.716 1.716,-1.716Zm-11.438,0c0.947,0 1.716,0.769 1.716,1.716c0,0.947 -0.769,1.716 -1.716,1.716c-0.947,0 -1.716,-0.769 -1.716,-1.716c0,-0.947 0.769,-1.716 1.716,-1.716Zm45.753,-11.438c0.947,0 1.716,0.769 1.716,1.716c0,0.947 -0.769,1.716 -1.716,1.716c-0.947,0 -1.716,-0.769 -1.716,-1.716c0,-0.947 0.769,-1.716 1.716,-1.716Zm-11.438,0c0.947,0 1.716,0.769 1.716,1.716c0,0.947 -0.769,1.716 -1.716,1.716c-0.947,0 -1.716,-0.769 -1.716,-1.716c0,-0.947 0.769,-1.716 1.716,-1.716Zm-11.438,0c0.947,0 1.716,0.769 1.716,1.716c0,0.947 -0.769,1.716 -1.716,1.716c-0.947,0 -1.716,-0.769 -1.716,-1.716c0,-0.947 0.769,-1.716 1.716,-1.716Zm-11.438,0c0.947,0 1.716,0.769 1.716,1.716c0,0.947 -0.769,1.716 -1.716,1.716c-0.947,0 -1.716,-0.769 -1.716,-1.716c0,-0.947 0.769,-1.716 1.716,-1.716Zm-11.438,0c0.947,0 1.716,0.769 1.716,1.716c0,0.947 -0.769,1.716 -1.716,1.716c-0.947,0 -1.716,-0.769 -1.716,-1.716c0,-0.947 0.769,-1.716 1.716,-1.716Zm34.315,-11.438c0.947,0 1.716,0.769 1.716,1.716c0,0.947 -0.769,1.716 -1.716,1.716c-0.947,0 -1.716,-0.769 -1.716,-1.716c0,-0.947 0.769,-1.716 1.716,-1.716Zm-11.438,0c0.947,0 1.716,0.769 1.716,1.716c0,0.947 -0.769,1.716 -1.716,1.716c-0.947,0 -1.716,-0.769 -1.716,-1.716c0,-0.947 0.769,-1.716 1.716,-1.716Zm-11.438,0c0.947,0 1.716,0.769 1.716,1.716c0,0.947 -0.769,1.716 -1.716,1.716c-0.947,0 -1.716,-0.769 -1.716,-1.716c0,-0.947 0.769,-1.716 1.716,-1.716Zm-11.438,0c0.947,0 1.716,0.769 1.716,1.716c0,0.947 -0.769,1.716 -1.716,1.716c-0.947,0 -1.716,-0.769 -1.716,-1.716c0,-0.947 0.769,-1.716 1.716,-1.716Zm57.192,-11.438c0.947,0 1.716,0.769 1.716,1.716c0,0.947 -0.769,1.716 -1.716,1.716c-0.947,0 -1.716,-0.769 -1.716,-1.716c0,-0.947 0.769,-1.716 1.716,-1.716Zm-11.438,0c0.947,0 1.716,0.769 1.716,1.716c0,0.947 -0.769,1.716 -1.716,1.716c-0.947,0 -1.716,-0.769 -1.716,-1.716c0,-0.947 0.769,-1.716 1.716,-1.716Zm-11.438,0c0.947,0 1.716,0.769 1.716,1.716c0,0.947 -0.769,1.716 -1.716,1.716c-0.947,0 -1.716,-0.769 -1.716,-1.716c0,-0.947 0.769,-1.716 1.716,-1.716Zm-11.438,0c0.947,0 1.716,0.769 1.716,1.716c0,0.947 -0.769,1.716 -1.716,1.716c-0.947,0 -1.716,-0.769 -1.716,-1.716c0,-0.947 0.769,-1.716 1.716,-1.716Zm-11.438,0c0.947,0 1.716,0.769 1.716,1.716c0,0.947 -0.769,1.716 -1.716,1.716c-0.947,0 -1.716,-0.769 -1.716,-1.716c0,-0.947 0.769,-1.716 1.716,-1.716Zm-11.438,0c0.947,0 1.716,0.769 1.716,1.716c0,0.947 -0.769,1.716 -1.716,1.716c-0.947,0 -1.716,-0.769 -1.716,-1.716c0,-0.947 0.769,-1.716 1.716,-1.716Zm-11.438,0c0.947,0 1.716,0.769 1.716,1.716c0,0.947 -0.769,1.716 -1.716,1.716c-0.947,0 -1.716,-0.769 -1.716,-1.716c0,-0.947 0.769,-1.716 1.716,-1.716Zm80.069,-11.438c0.947,0 1.716,0.769 1.716,1.716c0,0.947 -0.769,1.716 -1.716,1.716c-0.947,0 -1.716,-0.769 -1.716,-1.716c0,-0.947 0.769,-1.716 1.716,-1.716Zm-11.438,0c0.947,0 1.716,0.769 1.716,1.716c0,0.947 -0.769,1.716 -1.716,1.716c-0.947,0 -1.716,-0.769 -1.716,-1.716c0,-0.947 0.769,-1.716 1.716,-1.716Zm-11.438,0c0.947,0 1.716,0.769 1.716,1.716c0,0.947 -0.769,1.716 -1.716,1.716c-0.947,0 -1.716,-0.769 -1.716,-1.716c0,-0.947 0.769,-1.716 1.716,-1.716Zm-11.438,0c0.947,0 1.716,0.769 1.716,1.716c0,0.947 -0.769,1.716 -1.716,1.716c-0.947,0 -1.716,-0.769 -1.716,-1.716c0,-0.947 0.769,-1.716 1.716,-1.716Zm-11.438,0c0.947,0 1.716,0.769 1.716,1.716c0,0.947 -0.769,1.716 -1.716,1.716c-0.947,0 -1.716,-0.769 -1.716,-1.716c0,-0.947 0.769,-1.716 1.716,-1.716Zm-11.438,0c0.947,0 1.716,0.769 1.716,1.716c0,0.947 -0.769,1.716 -1.716,1.716c-0.947,0 -1.716,-0.769 -1.716,-1.716c0,-0.947 0.769,-1.716 1.716,-1.716Zm-11.438,0c0.947,0 1.716,0.769 1.716,1.716c0,0.947 -0.769,1.716 -1.716,1.716c-0.947,0 -1.716,-0.769 -1.716,-1.716c0,-0.947 0.769,-1.716 1.716,-1.716Zm68.63,-11.438c0.947,0 1.716,0.769 1.716,1.716c0,0.947 -0.769,1.716 -1.716,1.716c-0.947,0 -1.716,-0.769 -1.716,-1.716c0,-0.947 0.769,-1.716 1.716,-1.716Zm-11.438,0c0.947,0 1.716,0.769 1.716,1.716c0,0.947 -0.769,1.716 -1.716,1.716c-0.947,0 -1.716,-0.769 -1.716,-1.716c0,-0.947 0.769,-1.716 1.716,-1.716Zm-11.438,0c0.947,0 1.716,0.769 1.716,1.716c0,0.947 -0.769,1.716 -1.716,1.716c-0.947,0 -1.716,-0.769 -1.716,-1.716c0,-0.947 0.769,-1.716 1.716,-1.716Zm-11.438,0c0.947,0 1.716,0.769 1.716,1.716c0,0.947 -0.769,1.716 -1.716,1.716c-0.947,0 -1.716,-0.769 -1.716,-1.716c0,-0.947 0.769,-1.716 1.716,-1.716Zm-11.438,0c0.947,0 1.716,0.769 1.716,1.716c0,0.947 -0.769,1.716 -1.716,1.716c-0.947,0 -1.716,-0.769 -1.716,-1.716c0,-0.947 0.769,-1.716 1.716,-1.716Zm-11.438,0c0.947,0 1.716,0.769 1.716,1.716c0,0.947 -0.769,1.716 -1.716,1.716c-0.947,0 -1.716,-0.769 -1.716,-1.716c0,-0.947 0.769,-1.716 1.716,-1.716Zm45.753,-11.438c0.947,0 1.716,0.769 1.716,1.716c0,0.947 -0.769,1.716 -1.716,1.716c-0.947,0 -1.716,-0.769 -1.716,-1.716c0,-0.947 0.769,-1.716 1.716,-1.716Zm-11.438,0c0.947,0 1.716,0.769 1.716,1.716c0,0.947 -0.769,1.716 -1.716,1.716c-0.947,0 -1.716,-0.769 -1.716,-1.716c0,-0.947 0.769,-1.716 1.716,-1.716Zm-11.438,0c0.947,0 1.716,0.769 1.716,1.716c0,0.947 -0.769,1.716 -1.716,1.716c-0.947,0 -1.716,-0.769 -1.716,-1.716c0,-0.947 0.769,-1.716 1.716,-1.716Zm11.438,-11.438c0.947,0 1.716,0.769 1.716,1.716c0,0.947 -0.769,1.716 -1.716,1.716c-0.947,0 -1.716,-0.769 -1.716,-1.716c0,-0.947 0.769,-1.716 1.716,-1.716Z" style="fill:#d0e1ef;"/><path id="white-dots" serif:id="white dots" d="M596.517,260.758c1.263,0 2.288,1.025 2.288,2.288c0,1.263 -1.025,2.288 -2.288,2.288c-1.263,0 -2.288,-1.025 -2.288,-2.288c0,-1.263 1.025,-2.288 2.288,-2.288Zm0,12.582c1.263,0 2.288,1.025 2.288,2.288c0,1.263 -1.025,2.288 -2.288,2.288c-1.263,0 -2.288,-1.025 -2.288,-2.288c0,-1.263 1.025,-2.288 2.288,-2.288Zm9.723,-21.161c1.263,0 2.288,1.025 2.288,2.288c0,1.263 -1.025,2.288 -2.288,2.288c-1.263,0 -2.288,-1.025 -2.288,-2.288c0,-1.263 1.025,-2.288 2.288,-2.288Zm-24.593,21.161c1.263,0 2.288,1.025 2.288,2.288c0,1.263 -1.025,2.288 -2.288,2.288c-1.263,0 -2.288,-1.025 -2.288,-2.288c0,-1.263 1.025,-2.288 2.288,-2.288Zm-531.312,-16.586c1.263,0 2.288,1.025 2.288,2.288c0,1.263 -1.025,2.288 -2.288,2.288c-1.263,0 -2.288,-1.025 -2.288,-2.288c0,-1.263 1.025,-2.288 2.288,-2.288Zm0,16.586c1.263,0 2.288,1.025 2.288,2.288c0,1.263 -1.025,2.288 -2.288,2.288c-1.263,0 -2.288,-1.025 -2.288,-2.288c0,-1.263 1.025,-2.288 2.288,-2.288Zm-16.014,-7.435c1.263,0 2.288,1.025 2.288,2.288c0,1.263 -1.025,2.288 -2.288,2.288c-1.263,0 -2.288,-1.025 -2.288,-2.288c0,-1.263 1.025,-2.288 2.288,-2.288Z" style="fill:#f6f6f8;"/></g><g id="thermometer"><path d="M546.079,254.569c6.223,4.613 10.26,12.011 10.26,20.344c0,13.967 -11.34,25.307 -25.307,25.307c-13.967,0 -25.307,-11.34 -25.307,-25.307c0,-8.334 4.037,-15.732 10.26,-20.344c0.292,-0.216 0.463,-0.556 0.463,-0.919l0,-161.894c0,-8.049 6.535,-14.584 14.584,-14.584c8.049,0 14.584,6.535 14.584,14.584l0,161.894c0,0.363 0.171,0.703 0.463,0.919Zm-7.326,-132.787l4.003,0c0.631,-0 1.144,-0.513 1.144,-1.144c-0,-0.631 -0.513,-1.144 -1.144,-1.144l-4.003,0c-0.631,-0 -1.144,0.513 -1.144,1.144c-0,0.631 0.513,1.144 1.144,1.144Zm0,45.753l4.003,0c0.631,0 1.144,-0.513 1.144,-1.144c0,-0.631 -0.513,-1.144 -1.144,-1.144l-4.003,0c-0.631,0 -1.144,0.513 -1.144,1.144c0,0.631 0.513,1.144 1.144,1.144Zm0,45.753l4.003,0c0.631,0 1.144,-0.513 1.144,-1.144c0,-0.631 -0.513,-1.144 -1.144,-1.144l-4.003,0c-0.631,0 -1.144,0.513 -1.144,1.144c0,0.631 0.513,1.144 1.144,1.144Zm-0,-34.315l4.003,0c0.631,0 1.144,-0.513 1.144,-1.144c0,-0.631 -0.513,-1.144 -1.144,-1.144l-4.003,0c-0.631,0 -1.144,0.513 -1.144,1.144c0,0.631 0.513,1.144 1.144,1.144Zm-4.575,-87.218c0,-1.736 -1.409,-3.146 -3.146,-3.146c-1.736,0 -3.146,1.409 -3.146,3.146l0,177.581l6.291,0l0,-177.581Zm4.575,64.341l4.003,0c0.631,-0 1.144,-0.513 1.144,-1.144c-0,-0.631 -0.513,-1.144 -1.144,-1.144l-4.003,0c-0.631,-0 -1.144,0.513 -1.144,1.144c-0,0.631 0.513,1.144 1.144,1.144Zm0,-22.877l4.003,0c0.631,-0 1.144,-0.513 1.144,-1.144c-0,-0.631 -0.513,-1.144 -1.144,-1.144l-4.003,0c-0.631,-0 -1.144,0.513 -1.144,1.144c-0,0.631 0.513,1.144 1.144,1.144Zm0,68.63l4.003,0c0.631,0 1.144,-0.513 1.144,-1.144c0,-0.631 -0.513,-1.144 -1.144,-1.144l-4.003,0c-0.631,0 -1.144,0.513 -1.144,1.144c0,0.631 0.513,1.144 1.144,1.144Zm-0,22.877l4.003,0c0.631,0 1.144,-0.513 1.144,-1.144c0,-0.631 -0.513,-1.144 -1.144,-1.144l-4.003,0c-0.631,0 -1.144,0.513 -1.144,1.144c0,0.631 0.513,1.144 1.144,1.144Zm-0,-125.822l4.003,0c0.631,0 1.144,-0.513 1.144,-1.144c0,-0.631 -0.513,-1.144 -1.144,-1.144l-4.003,0c-0.631,0 -1.144,0.513 -1.144,1.144c0,0.631 0.513,1.144 1.144,1.144Zm0,91.507l4.003,0c0.631,0 1.144,-0.513 1.144,-1.144c0,-0.631 -0.513,-1.144 -1.144,-1.144l-4.003,0c-0.631,0 -1.144,0.513 -1.144,1.144c0,0.631 0.513,1.144 1.144,1.144Zm-0,-45.753l4.003,0c0.631,-0 1.144,-0.513 1.144,-1.144c-0,-0.631 -0.513,-1.144 -1.144,-1.144l-4.003,0c-0.631,-0 -1.144,0.513 -1.144,1.144c-0,0.631 0.513,1.144 1.144,1.144Zm0,-34.315l4.003,0c0.631,-0 1.144,-0.513 1.144,-1.144c-0,-0.631 -0.513,-1.144 -1.144,-1.144l-4.003,0c-0.631,-0 -1.144,0.513 -1.144,1.144c-0,0.631 0.513,1.144 1.144,1.144Z" style="fill:#f3f7fa;"/><path d="M514.161,253.082l0,-161.326c0,-9.312 7.56,-16.872 16.872,-16.872c9.312,0 16.872,7.56 16.872,16.872l0,161.326c6.522,5.049 10.723,12.954 10.723,21.832c0,15.23 -12.365,27.595 -27.595,27.595c-15.23,0 -27.595,-12.365 -27.595,-27.595c0,-8.878 4.201,-16.783 10.723,-21.832Zm31.918,1.487c-0.292,-0.216 -0.463,-0.556 -0.463,-0.919l-0,-161.894c0,-8.049 -6.535,-14.584 -14.584,-14.584c-8.049,0 -14.584,6.535 -14.584,14.584l-0,161.894c-0,0.363 -0.171,0.703 -0.463,0.919c-6.223,4.613 -10.26,12.011 -10.26,20.344c0,13.967 11.34,25.307 25.307,25.307c13.967,0 25.307,-11.34 25.307,-25.307c0,-8.334 -4.037,-15.732 -10.26,-20.344Zm-7.326,-144.226c-0.631,-0 -1.144,-0.513 -1.144,-1.144c0,-0.631 0.513,-1.144 1.144,-1.144l4.003,0c0.631,-0 1.144,0.513 1.144,1.144c0,0.631 -0.513,1.144 -1.144,1.144l-4.003,0Zm0,-11.438c-0.631,0 -1.144,-0.513 -1.144,-1.144c-0,-0.631 0.513,-1.144 1.144,-1.144l4.003,0c0.631,0 1.144,0.513 1.144,1.144c-0,0.631 -0.513,1.144 -1.144,1.144l-4.003,0Zm-0,34.315c-0.631,-0 -1.144,-0.513 -1.144,-1.144c0,-0.631 0.513,-1.144 1.144,-1.144l4.003,0c0.631,-0 1.144,0.513 1.144,1.144c0,0.631 -0.513,1.144 -1.144,1.144l-4.003,0Zm-0,11.438c-0.631,-0 -1.144,-0.513 -1.144,-1.144c0,-0.631 0.513,-1.144 1.144,-1.144l4.003,0c0.631,-0 1.144,0.513 1.144,1.144c0,0.631 -0.513,1.144 -1.144,1.144l-4.003,0Zm0,57.192c-0.631,0 -1.144,-0.513 -1.144,-1.144c-0,-0.631 0.513,-1.144 1.144,-1.144l4.003,0c0.631,0 1.144,0.513 1.144,1.144c-0,0.631 -0.513,1.144 -1.144,1.144l-4.003,0Zm0,-11.438c-0.631,0 -1.144,-0.513 -1.144,-1.144c-0,-0.631 0.513,-1.144 1.144,-1.144l4.003,0c0.631,0 1.144,0.513 1.144,1.144c-0,0.631 -0.513,1.144 -1.144,1.144l-4.003,0Zm-0,34.315c-0.631,0 -1.144,-0.513 -1.144,-1.144c-0,-0.631 0.513,-1.144 1.144,-1.144l4.003,0c0.631,0 1.144,0.513 1.144,1.144c-0,0.631 -0.513,1.144 -1.144,1.144l-4.003,0Zm-0,-102.945c-0.631,-0 -1.144,-0.513 -1.144,-1.144c0,-0.631 0.513,-1.144 1.144,-1.144l4.003,0c0.631,-0 1.144,0.513 1.144,1.144c0,0.631 -0.513,1.144 -1.144,1.144l-4.003,0Zm-0,34.315c-0.631,-0 -1.144,-0.513 -1.144,-1.144c0,-0.631 0.513,-1.144 1.144,-1.144l4.003,0c0.631,-0 1.144,0.513 1.144,1.144c0,0.631 -0.513,1.144 -1.144,1.144l-4.003,0Zm0,57.192c-0.631,0 -1.144,-0.513 -1.144,-1.144c-0,-0.631 0.513,-1.144 1.144,-1.144l4.003,0c0.631,0 1.144,0.513 1.144,1.144c-0,0.631 -0.513,1.144 -1.144,1.144l-4.003,0Zm-0,-45.753c-0.631,0 -1.144,-0.513 -1.144,-1.144c-0,-0.631 0.513,-1.144 1.144,-1.144l4.003,0c0.631,0 1.144,0.513 1.144,1.144c-0,0.631 -0.513,1.144 -1.144,1.144l-4.003,0Zm-0,11.438c-0.631,0 -1.144,-0.513 -1.144,-1.144c-0,-0.631 0.513,-1.144 1.144,-1.144l4.003,0c0.631,0 1.144,0.513 1.144,1.144c-0,0.631 -0.513,1.144 -1.144,1.144l-4.003,0Zm-4.575,-87.218l0,177.581l-6.291,0l0,-177.581c0,-1.736 1.409,-3.146 3.146,-3.146c1.736,0 3.146,1.409 3.146,3.146Z" style="fill:#adc3d1;"/><circle cx="531.032" cy="273.626" r="10.009" style="fill:#c49698;"/><circle cx="531.032" cy="272.482" r="8.293" style="fill:#d2a1a2;"/></g><g id="ruler"><path d="M119.537,68.021l0,-7.239c0,-0.424 0.344,-0.768 0.768,-0.768l20.77,0c0.424,0 0.768,0.344 0.768,0.768l0,262.691c0,0.424 -0.344,0.768 -0.768,0.768l-20.77,0c-0.424,0 -0.768,-0.344 -0.768,-0.768l0,-161.657l12.01,-0c0.631,-0 1.144,-0.513 1.144,-1.144c-0,-0.631 -0.513,-1.144 -1.144,-1.144l-12.01,0l0,-9.151l12.01,0c0.631,-0 1.144,-0.513 1.144,-1.144c-0,-0.631 -0.513,-1.144 -1.144,-1.144l-12.01,0l0,-9.151l12.01,-0c0.631,-0 1.144,-0.513 1.144,-1.144c-0,-0.631 -0.513,-1.144 -1.144,-1.144l-12.01,0l0,-9.151l12.01,0c0.631,-0 1.144,-0.513 1.144,-1.144c-0,-0.631 -0.513,-1.144 -1.144,-1.144l-12.01,0l0,-9.151l12.01,0c0.631,-0 1.144,-0.513 1.144,-1.144c-0,-0.631 -0.513,-1.144 -1.144,-1.144l-12.01,0l0,-9.151l12.01,0c0.631,-0 1.144,-0.513 1.144,-1.144c-0,-0.631 -0.513,-1.144 -1.144,-1.144l-12.01,0l0,-9.151l12.01,0c0.631,0 1.144,-0.513 1.144,-1.144c0,-0.631 -0.513,-1.144 -1.144,-1.144l-12.01,0l0,-9.151l12.01,0c0.631,0 1.144,-0.513 1.144,-1.144c0,-0.631 -0.513,-1.144 -1.144,-1.144l-12.01,0l0,-9.151l12.01,0c0.631,0 1.144,-0.513 1.144,-1.144c0,-0.631 -0.513,-1.144 -1.144,-1.144l-12.01,-0Z" style="fill:#f3f7fa;"/><path id="ruler1" serif:id="ruler" d="M117.249,60.782c0,-1.686 1.369,-3.055 3.055,-3.055l20.77,0c1.686,0 3.055,1.369 3.055,3.055l0,262.691c0,1.686 -1.369,3.055 -3.055,3.055l-20.77,0c-1.686,0 -3.055,-1.369 -3.055,-3.055l0,-262.691Zm2.288,7.239l12.01,0c0.631,0 1.144,0.513 1.144,1.144c-0,0.631 -0.513,1.144 -1.144,1.144l-12.01,0l0,9.151l12.01,-0c0.631,0 1.144,0.513 1.144,1.144c-0,0.631 -0.513,1.144 -1.144,1.144l-12.01,0l0,9.151l12.01,0c0.631,0 1.144,0.513 1.144,1.144c-0,0.631 -0.513,1.144 -1.144,1.144l-12.01,0l0,9.151l12.01,0c0.631,-0 1.144,0.513 1.144,1.144c0,0.631 -0.513,1.144 -1.144,1.144l-12.01,0l0,9.151l12.01,0c0.631,-0 1.144,0.513 1.144,1.144c0,0.631 -0.513,1.144 -1.144,1.144l-12.01,0l0,9.151l12.01,-0c0.631,-0 1.144,0.513 1.144,1.144c0,0.631 -0.513,1.144 -1.144,1.144l-12.01,-0l0,9.151l12.01,0c0.631,-0 1.144,0.513 1.144,1.144c0,0.631 -0.513,1.144 -1.144,1.144l-12.01,0l0,9.151l12.01,0c0.631,-0 1.144,0.513 1.144,1.144c0,0.631 -0.513,1.144 -1.144,1.144l-12.01,0l0,9.151l12.01,0c0.631,-0 1.144,0.513 1.144,1.144c0,0.631 -0.513,1.144 -1.144,1.144l-12.01,0l0,161.657c0,0.424 0.344,0.768 0.768,0.768l20.77,0c0.424,0 0.768,-0.344 0.768,-0.768l0,-262.691c0,-0.424 -0.344,-0.768 -0.768,-0.768l-20.77,0c-0.424,0 -0.768,0.344 -0.768,0.768l0,7.239Z" style="fill:#adc3d1;"/></g><g id="flask"><path d="M152.011,271.625l-85.846,0l21.829,-52.288c0.058,-0.14 0.088,-0.289 0.088,-0.441l0,-40.494l42.338,0l0.556,40.51c0.002,0.14 0.03,0.279 0.082,0.41l20.953,52.303Zm-20.463,-95.51l-45.182,0c-2.21,0 -4.003,-1.794 -4.003,-4.003c0,-2.21 1.794,-4.003 4.003,-4.003l45.182,0c2.21,0 4.003,1.794 4.003,4.003c0,2.21 -1.794,4.003 -4.003,4.003Z" style="fill:#f7fafb;"/><path id="flask1" serif:id="flask" d="M85.794,178.376c-3.205,-0.289 -5.719,-2.986 -5.719,-6.265c0,-3.472 2.819,-6.291 6.291,-6.291l45.182,0c3.472,0 6.291,2.819 6.291,6.291c0,3.077 -2.213,5.64 -5.133,6.185l0.555,40.372l33.64,83.973c2.951,5.589 1.711,11.623 -1.727,16.241c-3.406,4.575 -8.972,7.725 -14.612,7.647c-15.566,-0.214 -33.07,0 -41.273,0c-6.665,0 -27.412,-0.07 -42.017,-0c-6.219,0.03 -11.101,-3.793 -14.016,-8.811c-2.886,-4.968 -3.809,-11.083 -2.289,-15.618c0.009,-0.026 0.018,-0.052 0.029,-0.077l34.799,-83.356l0,-40.29Zm44.625,0.026l-42.338,-0l0,40.494c-0,0.151 -0.03,0.301 -0.088,0.441l-34.872,83.532c-1.319,3.99 -0.421,9.341 2.111,13.7c2.512,4.324 6.668,7.698 12.027,7.673c14.608,-0.07 35.361,-0 42.028,-0c8.21,0 25.727,-0.214 41.304,0c4.928,0.068 9.769,-2.728 12.746,-6.726c2.934,-3.941 4.056,-9.086 1.515,-13.852c-0.02,-0.037 -0.037,-0.074 -0.052,-0.113l-33.743,-84.23c-0.052,-0.13 -0.08,-0.269 -0.082,-0.41l-0.556,-40.51Zm1.128,-2.288c2.21,0 4.003,-1.794 4.003,-4.003c0,-2.21 -1.794,-4.003 -4.003,-4.003l-45.182,0c-2.21,0 -4.003,1.794 -4.003,4.003c0,2.21 1.794,4.003 4.003,4.003l45.182,0Z" style="fill:#adc3d1;"/><path d="M68.848,265.197c5.412,0.731 10.628,0.915 18.994,-0.401c12.333,-1.94 20.31,-7.605 31.727,-8.682c12.636,-1.191 19.352,0.649 27.709,3.697l17.523,43.74c0.015,0.038 0.033,0.076 0.052,0.113c2.541,4.766 1.418,9.911 -1.515,13.852c-2.977,3.998 -7.818,6.794 -12.746,6.726c-15.577,-0.214 -33.095,-0 -41.304,-0c-6.667,0 -27.419,-0.07 -42.028,0c-5.359,0.026 -9.515,-3.348 -12.027,-7.673c-2.533,-4.36 -3.431,-9.711 -2.111,-13.7l15.727,-37.671Z" style="fill:#d3e7f1;"/><g id="bubbles"><path id="blue" d="M102.093,224.155c2.683,0 4.861,2.178 4.861,4.861c0,2.683 -2.178,4.861 -4.861,4.861c-2.683,0 -4.861,-2.178 -4.861,-4.861c0,-2.683 2.178,-4.861 4.861,-4.861Zm7.864,20.304c1.973,0 3.574,1.602 3.574,3.574c0,1.973 -1.602,3.574 -3.574,3.574c-1.973,0 -3.574,-1.602 -3.574,-3.574c0,-1.973 1.602,-3.574 3.574,-3.574Z" style="fill:#d1e8f3;"/><path id="white" d="M115.819,268.193c2.052,0 3.717,1.666 3.717,3.717c0,2.052 -1.666,3.717 -3.717,3.717c-2.052,0 -3.717,-1.666 -3.717,-3.717c0,-2.052 1.666,-3.717 3.717,-3.717Zm-28.31,13.726c1.894,0 3.432,1.538 3.432,3.432c0,1.894 -1.538,3.432 -3.432,3.432c-1.894,0 -3.432,-1.538 -3.432,-3.432c0,-1.894 1.538,-3.432 3.432,-3.432Zm27.166,20.017c1.42,0 2.574,1.153 2.574,2.574c0,1.42 -1.153,2.574 -2.574,2.574c-1.42,0 -2.574,-1.153 -2.574,-2.574c0,-1.42 1.153,-2.574 2.574,-2.574Zm12.868,-22.305c0.631,0 1.144,0.513 1.144,1.144c0,0.631 -0.513,1.144 -1.144,1.144c-0.631,0 -1.144,-0.513 -1.144,-1.144c0,-0.631 0.513,-1.144 1.144,-1.144Zm-56.048,5.719c0.631,0 1.144,0.513 1.144,1.144c0,0.631 -0.513,1.144 -1.144,1.144c-0.631,0 -1.144,-0.513 -1.144,-1.144c0,-0.631 0.513,-1.144 1.144,-1.144Z" style="fill:#f5f7f8;"/></g></g><g id="icon"><path d="M533.423,18.111l-0.025,0.018c-1.158,0.807 -2.564,1.28 -4.081,1.28c-3.946,0 -7.149,-3.203 -7.149,-7.149c0,-3.946 3.203,-7.149 7.149,-7.149c3.946,0 7.149,3.203 7.149,7.149c0,2.418 -1.203,4.557 -3.042,5.851Zm16.046,21.001l0.009,-0.007c1.152,-0.875 2.588,-1.394 4.145,-1.394c3.788,0 6.863,3.075 6.863,6.863c0,3.788 -3.075,6.863 -6.863,6.863c-3.788,0 -6.863,-3.075 -6.863,-6.863c0,-2.227 1.063,-4.207 2.709,-5.462Zm-20.489,13.051l0.002,0.015c0.032,0.225 0.048,0.455 0.048,0.689c0,2.683 -2.178,4.861 -4.861,4.861c-2.683,0 -4.861,-2.178 -4.861,-4.861c0,-2.683 2.178,-4.861 4.861,-4.861c2.444,0 4.469,1.807 4.811,4.157Z" style="fill:#d3e7f1;"/><path d="M531.318,52.819c0,0.016 0,0.031 0,0.047c0,3.946 -3.203,7.149 -7.149,7.149c-3.946,0 -7.149,-3.203 -7.149,-7.149c0,-3.946 3.203,-7.149 7.149,-7.149c3.131,0 5.795,2.018 6.761,4.823l13.668,-4.443c-0.083,-0.496 -0.127,-1.005 -0.127,-1.524c0,-2.557 1.051,-4.871 2.744,-6.532l-13.45,-17.46c-1.326,0.711 -2.841,1.114 -4.45,1.114c-5.208,0 -9.437,-4.228 -9.437,-9.437c0,-5.208 4.228,-9.437 9.437,-9.437c5.208,0 9.437,4.228 9.437,9.437c0,2.769 -1.195,5.261 -3.098,6.988l13.382,17.406c1.349,-0.783 2.915,-1.232 4.586,-1.232c5.05,0 9.151,4.1 9.151,9.151c0,5.05 -4.1,9.151 -9.151,9.151c-3.728,0 -6.939,-2.234 -8.364,-5.436l-13.941,4.532Zm-2.338,-0.657c-0.341,-2.35 -2.367,-4.157 -4.811,-4.157c-2.683,0 -4.861,2.178 -4.861,4.861c0,2.683 2.178,4.861 4.861,4.861c2.683,0 4.861,-2.178 4.861,-4.861c0,-0.234 -0.017,-0.464 -0.048,-0.689c-0.001,-0.005 -0.001,-0.01 -0.002,-0.015Zm20.489,-13.051c-1.646,1.254 -2.709,3.235 -2.709,5.462c0,3.788 3.075,6.863 6.863,6.863c3.788,0 6.863,-3.075 6.863,-6.863c0,-3.788 -3.075,-6.863 -6.863,-6.863c-1.557,0 -2.993,0.519 -4.145,1.394c-0.003,0.002 -0.006,0.005 -0.009,0.007Zm-16.046,-21.001c1.84,-1.294 3.042,-3.433 3.042,-5.851c0,-3.946 -3.203,-7.149 -7.149,-7.149c-3.946,0 -7.149,3.203 -7.149,7.149c0,3.946 3.203,7.149 7.149,7.149c1.517,0 2.924,-0.473 4.081,-1.28c0.008,-0.006 0.017,-0.012 0.025,-0.018Z" style="fill:#aec4d2;"/></g></svg>