<?xml version="1.0" encoding="UTF-8" standalone="no"?><!DOCTYPE svg PUBLIC "-//W3C//DTD SVG 1.1//EN" "http://www.w3.org/Graphics/SVG/1.1/DTD/svg11.dtd"><svg width="100%" height="100%" viewBox="0 0 30 30" version="1.1" xmlns="http://www.w3.org/2000/svg" xmlns:xlink="http://www.w3.org/1999/xlink" xml:space="preserve" xmlns:serif="http://www.serif.com/" style="fill-rule:evenodd;clip-rule:evenodd;stroke-linejoin:round;stroke-miterlimit:2;"><path d="M30,6l0,18c0,3.311 -2.689,6 -6,6l-18,0c-3.311,0 -6,-2.689 -6,-6l0,-18c0,-3.311 2.689,-6 6,-6l18,0c3.311,0 6,2.689 6,6Z" style="fill:#dee8ef;"/><path d="M8.25,14.212c-0.724,-0 -1.312,-0.588 -1.312,-1.313c0,-0.724 0.588,-1.312 1.312,-1.312l7.331,0l-0.909,-0.909c-0.512,-0.512 -0.512,-1.344 0,-1.856c0.512,-0.512 1.344,-0.512 1.856,0l3.15,3.15c0.375,0.375 0.488,0.94 0.285,1.43c-0.203,0.49 -0.682,0.81 -1.213,0.81l-10.5,0Zm13.5,2.25c0.724,-0 1.313,0.588 1.313,1.312c0,0.724 -0.588,1.313 -1.312,1.313l-7.331,-0l0.909,0.909c0.512,0.512 0.512,1.344 0,1.856c-0.512,0.512 -1.344,0.512 -1.856,0l-3.15,-3.15c-0.375,-0.375 -0.488,-0.94 -0.285,-1.43c0.203,-0.49 0.682,-0.81 1.213,-0.81l10.5,0Z" style="fill:#5f7f95;"/></svg>